# xmcd
#
# Track frame offsets: 
#        150
#        26327
#        42457
#        60401
#        75991
#        98338
#        115286
#        138987
#        162682
#        167142
#        188016
#        227951
#        248193
#        268599
#        285550
#        305943
#
# Disc length: 4330 seconds
#
# Revision: 2
# Processed by: cddbd v1.4PL0 Copyright (c) Steve Scherf et al.
# Submitted via: ExactAudioCopy v0.95a4
#
DISCID=d710e810
DTITLE=Sarah Brightma - Harem
DYEAR=2003
DGENRE=New Age
TTITLE0=Harem
TTITLE1=What a Wonderful World
TTITLE2=I's a beautiful day
TTITLE3=What you never know
TTITLE4=The journey home
TTITLE5=Free
TTITLE6=Mysterious Days
TTITLE7=This War Is Over
TTITLE8=Miserere
TTITLE9=Beautiful
TTITLE10=Arabian Nights
TTITLE11=Stranger In Paradise
TTITLE12=Untile The End Of Time
TTITLE13=Gueri De Toi
TTITLE14=Winter July
TTITLE15=Scarbrough Fair
EXTD=
EXTT0=
EXTT1=
EXTT2=
EXTT3=
EXTT4=
EXTT5=
EXTT6=
EXTT7=
EXTT8=
EXTT9=
EXTT10=
EXTT11=
EXTT12=
EXTT13=
EXTT14=
EXTT15=
PLAYORDER=
